<svg width="500" height="500" viewBox="0 0 500 500" fill="none" xmlns="http://www.w3.org/2000/svg">
<g clip-path="url(#clip0_401_4846)">
<path d="M73.9676 244.794C74.3065 244.638 74.6453 244.469 74.9842 244.3C78.7898 242.335 81.7614 239.615 83.8988 236.127C86.0362 232.652 87.1049 228.67 87.1049 224.219C87.1049 219.443 86.0362 215.239 83.8988 211.622C81.7614 208.017 78.7898 205.18 74.9842 203.11C71.1655 201.041 66.7995 200 61.8599 200H44.135C42.6753 200 41.4632 200.482 40.4858 201.432C39.4953 202.382 39 203.618 39 205.128V276.848H49.257V247.241H61.873C62.5116 247.241 63.1111 247.215 63.7237 247.202L83.1168 276.913L94.9508 276.835L73.9546 244.781L73.9676 244.794ZM49.257 237.793V209.461H61.873C64.8966 209.461 67.5554 210.086 69.8492 211.335C72.156 212.572 73.9546 214.315 75.2709 216.554C76.5873 218.779 77.2389 221.33 77.2389 224.219C77.2389 226.848 76.5873 229.191 75.2709 231.26C73.9546 233.329 72.156 234.93 69.8492 236.088C67.5423 237.233 64.8966 237.806 61.873 237.806H49.257V237.793Z" fill="#008A27"/>
<path d="M143.694 268.831C140.645 271.72 136.213 274.219 132.89 275.325C129.566 276.444 126.399 277.004 123.376 277.004C117.928 277.004 113.08 275.845 108.844 273.516C104.608 271.186 101.285 267.972 98.8867 263.873C96.4886 259.773 95.2896 255.062 95.2896 249.752C95.2896 244.443 96.4234 239.627 98.6912 235.528C100.959 231.428 104.1 228.214 108.101 225.884C112.102 223.555 116.703 222.397 121.903 222.397C127.103 222.397 131.43 223.529 135.105 225.793C138.781 228.058 141.596 231.168 143.538 235.137C145.48 239.107 146.444 243.688 146.444 248.867C146.444 250.117 146.014 251.145 145.167 251.965C144.307 252.785 143.225 253.201 141.909 253.201H102.197V245.327H141.622L137.582 248.086C137.517 244.807 136.852 241.866 135.614 239.276C134.363 236.686 132.59 234.63 130.296 233.12C127.989 231.611 125.2 230.856 121.916 230.856C118.176 230.856 114.969 231.676 112.311 233.316C109.652 234.955 107.632 237.207 106.25 240.057C104.869 242.907 104.178 246.147 104.178 249.752C104.178 253.357 104.999 256.572 106.641 259.396C108.283 262.22 110.551 264.445 113.445 266.085C116.338 267.725 119.648 268.545 123.402 268.545C125.435 268.545 127.52 268.167 129.658 267.412C131.795 266.658 137.165 263.938 138.481 262.949L143.707 268.831H143.694Z" fill="#008A27"/>
<path d="M183.484 246.538L204.024 276.887L193.103 276.939L176.629 252.876L183.484 246.538Z" fill="#008A27"/>
<path d="M153.495 277.004L174.687 245.666L180.812 252.498L164.73 276.861L153.495 277.004Z" fill="#008A27"/>
<path d="M201.782 222.396L183.445 250.793L176.225 245.509L186.99 227.563C188.332 225.481 188.463 225.312 189.492 224.466C190.848 223.347 192.568 222.735 194.823 222.553C197.09 222.357 198.993 222.409 201.782 222.409V222.396Z" fill="#008A27"/>
<path d="M163.322 222.54C165.577 222.735 167.284 223.334 168.652 224.453C169.682 225.299 169.812 225.468 171.155 227.55L183.432 247.709L176.212 252.993L156.362 222.384C159.151 222.384 161.067 222.345 163.322 222.527V222.54Z" fill="#008A27"/>
<path d="M269.007 250.078C269.007 254.971 268.017 259.383 266.062 263.313L257.968 257.496C258.894 255.232 259.35 252.759 259.35 250.078C259.35 246.525 258.581 243.376 257.043 240.578C255.492 237.793 253.42 235.594 250.787 233.98C248.167 232.379 245.17 231.572 241.82 231.572C238.471 231.572 235.565 232.379 232.906 233.98C231.563 234.8 230.364 235.763 229.309 236.869L221.75 231.429C223.535 229.425 225.62 227.72 228.018 226.315C232.098 223.907 236.698 222.723 241.82 222.723C246.942 222.723 251.647 223.907 255.727 226.315C259.806 228.709 263.038 231.963 265.423 236.101C267.821 240.227 269.02 244.886 269.02 250.078H269.007Z" fill="#008A27"/>
<path d="M262.66 268.519C260.966 270.562 258.985 272.306 256.704 273.737C252.885 276.145 248.584 277.329 243.788 277.329C239.917 277.329 236.346 276.535 233.101 274.922C229.843 273.321 227.067 271.135 224.773 268.376V300H214.725V250.078C214.79 245.054 215.924 240.539 218.139 236.504L225.92 242.087C224.877 244.495 224.369 247.15 224.369 250.078C224.369 253.553 225.125 256.676 226.637 259.474C228.149 262.259 230.234 264.458 232.893 266.072C235.551 267.673 238.523 268.48 241.807 268.48C245.092 268.48 248.154 267.673 250.774 266.072C252.26 265.161 253.563 264.081 254.684 262.793L262.66 268.532V268.519Z" fill="#008A27"/>
<path d="M354.412 224.999C355.377 225.962 356.302 227.459 356.406 229.138V276.925H346.358V222.474C346.358 222.474 352.04 222.605 354.412 224.999ZM386.865 276.925V247.813C386.865 244.078 386.174 241.019 384.792 238.664C383.411 236.295 381.56 234.551 379.227 233.393C376.894 232.248 374.223 231.675 371.199 231.675C368.436 231.675 365.947 232.235 363.705 233.354C361.476 234.473 359.691 235.957 358.387 237.831C357.071 239.705 356.419 241.852 356.419 244.273H350.216C350.216 240.134 351.219 236.451 353.226 233.198C355.233 229.944 357.97 227.381 361.45 225.468C364.93 223.568 368.84 222.618 373.18 222.618C377.52 222.618 381.769 223.581 385.353 225.52C388.937 227.459 391.752 230.296 393.824 234.031C395.896 237.766 396.926 242.36 396.926 247.813V276.925H386.878H386.865Z" fill="#008A27"/>
<path d="M454.715 268.909C452.981 270.796 450.974 272.396 448.693 273.737C444.614 276.145 440.026 277.329 434.891 277.329C429.756 277.329 425.156 276.145 421.05 273.737C416.932 271.342 413.687 268.089 411.288 263.95C408.89 259.825 407.691 255.166 407.691 249.973C407.691 245.236 408.617 240.929 410.467 237.089L418.561 242.907C417.753 245.054 417.349 247.423 417.349 249.973C417.349 253.448 418.118 256.597 419.656 259.421C421.207 262.233 423.305 264.458 425.964 266.072C428.622 267.672 431.594 268.479 434.878 268.479C438.163 268.479 441.225 267.672 443.845 266.072C445.057 265.33 446.152 264.458 447.116 263.456L454.702 268.922L454.715 268.909Z" fill="#008A27"/>
<path d="M462 199.999V249.973C462 255.153 460.801 259.799 458.416 263.924L450.622 258.302C451.769 255.777 452.343 252.992 452.343 249.973C452.343 246.433 451.587 243.284 450.075 240.525C448.576 237.766 446.504 235.592 443.871 233.979C441.251 232.378 438.267 231.571 434.904 231.571C431.542 231.571 428.648 232.378 425.99 233.979C424.374 234.968 422.966 236.139 421.767 237.545L413.817 231.818C415.563 229.645 417.636 227.81 420.034 226.313C423.839 223.906 428.14 222.722 432.936 222.722C436.807 222.722 440.391 223.515 443.676 225.129C446.96 226.73 449.723 228.916 451.952 231.675V207.378C451.952 205.218 452.968 203.122 454.767 201.925C456.318 200.884 458.624 199.999 462 199.999V199.999Z" fill="#008A27"/>
<path d="M325.817 268.663C320.865 273.738 313.944 276.875 306.294 276.875C291.241 276.875 278.99 264.655 278.99 249.61C278.99 245.133 280.085 240.891 282.026 237.143L289.703 242.674C288.817 244.808 288.308 247.151 288.308 249.61C288.308 259.501 296.376 267.557 306.281 267.557C310.803 267.557 314.935 265.878 318.102 263.106L325.804 268.65L325.817 268.663Z" fill="#008A27"/>
<path d="M333.611 249.624C333.611 254.803 332.165 259.631 329.649 263.757L322.038 258.291C323.472 255.727 324.28 252.76 324.28 249.624C324.28 239.733 316.212 231.677 306.307 231.677C301.094 231.677 296.389 233.903 293.105 237.468L285.506 232.002C290.524 226.107 297.992 222.372 306.307 222.372C321.373 222.372 333.611 234.605 333.611 249.637V249.624Z" fill="#008A27"/>
<path d="M340.037 270.08L334.589 276.926L327.929 271.629C329.975 269.534 331.761 267.178 333.09 264.562L340.037 270.093V270.08Z" fill="#008A27"/>
</g>
<defs>
<clipPath id="clip0_401_4846">
<rect width="423" height="100" fill="white" transform="translate(39 200)"/>
</clipPath>
</defs>
</svg>
