<svg width="72" height="71" viewBox="0 0 72 71" fill="none" xmlns="http://www.w3.org/2000/svg">
<path d="M37.9533 39.932C38.422 40.1905 38.7682 40.657 38.7682 41.1945C38.7682 41.894 39.3379 42.461 40.0374 42.461H27.6914V54.8043C27.6914 54.1048 28.2611 53.5378 28.9606 53.5378C29.4943 53.5378 29.963 53.1909 30.2226 52.7197C31.1601 51.0065 32.9846 49.8455 35.0759 49.8455C38.1336 49.8455 40.6143 52.3251 40.6143 55.3839C40.6143 58.4427 38.1336 60.9223 35.0759 60.9223C34.3115 60.9223 33.5832 60.7677 32.9197 60.4882C31.7731 60.0017 30.8212 59.1363 30.2226 58.0481C29.963 57.5768 29.4943 57.23 28.9606 57.23C28.2611 57.23 27.6914 56.663 27.6914 55.9635V70.1529H49.8449C52.9026 70.1529 55.3833 67.6733 55.3833 64.6145V42.461H41.1912C41.8907 42.461 42.4604 41.894 42.4604 41.1945C42.4604 40.657 42.8066 40.1905 43.2753 39.932C44.9916 38.9914 46.1527 37.1671 46.1527 35.0765C46.1527 32.0188 43.672 29.5381 40.6143 29.5381C37.5567 29.5381 35.0759 32.0188 35.0759 35.0765C35.0759 37.1671 36.237 38.9914 37.9533 39.932Z" fill="#008A27"/>
<path d="M30.2193 52.7229C29.9609 53.1917 29.4944 53.5378 28.9569 53.5378C28.2574 53.5378 27.6904 54.1075 27.6904 54.807L27.6904 42.4611L15.3471 42.4611C16.0466 42.4611 16.6136 43.0308 16.6136 43.7303C16.6136 44.2639 16.9604 44.7327 17.4317 44.9923C19.1448 45.9298 20.3059 47.7543 20.3059 49.8456C20.3059 52.9032 17.8263 55.384 14.7675 55.384C11.7087 55.384 9.2291 52.9032 9.2291 49.8456C9.2291 49.0812 9.3837 48.3528 9.66314 47.6894C10.1497 46.5427 11.0151 45.5908 12.1033 44.9923C12.5745 44.7327 12.9214 44.2639 12.9214 43.7303C12.9214 43.0308 13.4884 42.4611 14.1879 42.4611L-0.00153708 42.4611L-0.00153805 64.6146C-0.00153819 67.6722 2.47807 70.153 5.53685 70.153L27.6904 70.153L27.6904 55.9609C27.6904 56.6604 28.2574 57.2301 28.9569 57.2301C29.4944 57.2301 29.9609 57.5762 30.2193 58.045C31.16 59.7613 32.9843 60.9223 35.0749 60.9223C38.1325 60.9223 40.6133 58.4416 40.6133 55.384C40.6133 52.3263 38.1325 49.8456 35.0749 49.8456C32.9843 49.8456 31.16 51.0066 30.2193 52.7229Z" fill="#9DFDB7"/>
<path d="M17.4295 44.99C16.9608 44.7315 16.6146 44.265 16.6146 43.7275C16.6146 43.028 16.0449 42.461 15.3454 42.461L27.6914 42.461L27.6914 30.1177C27.6914 30.8172 27.1217 31.3842 26.4222 31.3842C25.8885 31.3842 25.4198 31.7311 25.1602 32.2023C24.2227 33.9155 22.3982 35.0765 20.3069 35.0765C17.2492 35.0765 14.7685 32.5969 14.7685 29.5381C14.7685 26.4793 17.2492 23.9997 20.3069 23.9997C21.0713 23.9997 21.7997 24.1543 22.4631 24.4338C23.6097 24.9203 24.5616 25.7857 25.1602 26.8739C25.4198 27.3452 25.8885 27.692 26.4222 27.692C27.1217 27.692 27.6914 28.259 27.6914 28.9585L27.6914 14.7691L5.53787 14.7691C2.48022 14.7691 -0.000512008 17.2487 -0.000512275 20.3075L-0.000514212 42.461L14.1916 42.461C13.4921 42.461 12.9224 43.028 12.9224 43.7275C12.9224 44.265 12.5762 44.7315 12.1075 44.99C10.3912 45.9306 9.23013 47.7549 9.23013 49.8455C9.23013 52.9032 11.7109 55.3839 14.7685 55.3839C17.8262 55.3839 20.3069 52.9032 20.3069 49.8455C20.3069 47.7549 19.1459 45.9306 17.4295 44.99Z" fill="#008A27"/>
<path d="M41.7807 17.43C42.0391 16.9613 42.5056 16.6151 43.0431 16.6151C43.7426 16.6151 44.3096 16.0454 44.3096 15.3459L44.3096 27.6919L56.6529 27.6919C55.9534 27.6919 55.3864 27.1222 55.3864 26.4227C55.3864 25.889 55.0396 25.4203 54.5683 25.1607C52.8552 24.2232 51.6941 22.3987 51.6941 20.3074C51.6941 17.2497 54.1737 14.769 57.2325 14.769C60.2913 14.769 62.7709 17.2497 62.7709 20.3074C62.7709 21.0718 62.6163 21.8001 62.3369 22.4636C61.8503 23.6102 60.9849 24.5621 59.8967 25.1607C59.4255 25.4203 59.0786 25.889 59.0786 26.4227C59.0786 27.1222 58.5116 27.6919 57.8121 27.6919L72.0015 27.6919L72.0015 5.53836C72.0015 2.48071 69.5219 -2.87275e-05 66.4632 -2.85937e-05L44.3096 -2.76254e-05L44.3096 14.1921C44.3096 13.4926 43.7426 12.9229 43.0431 12.9229C42.5056 12.9229 42.0391 12.5767 41.7807 12.108C40.84 10.3917 39.0157 9.23061 36.9251 9.23061C33.8675 9.23061 31.3867 11.7113 31.3867 14.769C31.3867 17.8266 33.8675 20.3074 36.9251 20.3074C39.0157 20.3074 40.84 19.1463 41.7807 17.43Z" fill="#9DFDB7"/>
</svg>
