<svg width="67" height="69" viewBox="0 0 67 69" fill="none" xmlns="http://www.w3.org/2000/svg">
<path fill-rule="evenodd" clip-rule="evenodd" d="M0 12.0256C0 5.38406 5.38406 0 12.0256 0H54.9744C61.6159 0 67 5.38406 67 12.0256V36.0769C67 42.7185 61.6159 48.1026 54.9744 48.1026H35.1298C34.1811 48.1026 33.4119 47.3334 33.4119 46.3846C33.4119 45.4358 34.1811 44.6667 35.1298 44.6667H54.9744C59.7183 44.6667 63.5641 40.8209 63.5641 36.0769V12.0256C63.5641 7.28166 59.7183 3.4359 54.9744 3.4359H12.0256C7.28166 3.4359 3.4359 7.28166 3.4359 12.0256V37.4204C3.4359 41.4224 6.68014 44.6667 10.6821 44.6667C11.6309 44.6667 12.4001 45.4358 12.4001 46.3846C12.4001 47.3334 11.6309 48.1026 10.6821 48.1026C4.78254 48.1026 0 43.32 0 37.4204V12.0256Z" fill="#008A27"/>
<path fill-rule="evenodd" clip-rule="evenodd" d="M46.7423 27.9904C47.4132 28.6613 47.4132 29.749 46.7423 30.4199L32.1398 45.0225C31.4689 45.6934 30.3811 45.6934 29.7102 45.0225C29.0393 44.3516 29.0393 43.2638 29.7102 42.5929L44.3128 27.9904C44.9837 27.3195 46.0714 27.3195 46.7423 27.9904Z" fill="#008A27"/>
<circle cx="22.3335" cy="18.8974" r="5.15385" fill="#008A27"/>
<path fill-rule="evenodd" clip-rule="evenodd" d="M18.0803 24.0513L22.3311 32.641L26.582 24.0513H30.9209C31.1088 24.0513 31.29 24.0823 31.4644 24.1398C32.1422 24.3679 32.6388 25.0113 32.6388 25.7692V46.3846C32.6388 47.3333 31.8671 48.1026 30.9209 48.1026H29.2029V49.8205H15.4593V48.1026H13.7414C12.7952 48.1026 12.0234 47.3333 12.0234 46.3846V25.7692C12.0234 25.35 12.1778 24.9658 12.4261 24.6676C12.7415 24.2908 13.2112 24.0513 13.7414 24.0513H18.0803Z" fill="#008A27"/>
<path d="M0 58.2563C0 55.4949 2.23858 53.2563 5 53.2563H15.6154C18.3768 53.2563 20.6154 55.4949 20.6154 58.2563V68.7179H0V58.2563Z" fill="#008A27"/>
<path d="M24.0508 58.2563C24.0508 55.4949 26.2894 53.2563 29.0508 53.2563H37.9482C40.7096 53.2563 42.9482 55.4949 42.9482 58.2563V68.7179H24.0508V58.2563Z" fill="#008A27"/>
<path d="M46.3828 58.2563C46.3828 55.4949 48.6214 53.2563 51.3828 53.2563H61.9982C64.7596 53.2563 66.9982 55.4949 66.9982 58.2563V68.7179H46.3828V58.2563Z" fill="#008A27"/>
</svg>
