<svg width="65" height="69" viewBox="0 0 65 69" fill="none" xmlns="http://www.w3.org/2000/svg">
<path fill-rule="evenodd" clip-rule="evenodd" d="M1.90014 41.9472C3.83691 40.6841 6.43094 41.2302 7.69405 43.167L20.2542 62.4259C21.5173 64.3627 20.9712 66.9567 19.0345 68.2198C17.0977 69.4829 14.5036 68.9368 13.2405 67.0001L0.680364 47.7411C-0.582751 45.8043 -0.0366409 43.2103 1.90014 41.9472Z" fill="#78E595"/>
<path fill-rule="evenodd" clip-rule="evenodd" d="M21.3951 58.414C21.0386 58.1797 20.7211 57.8728 20.4662 57.498L11.1448 43.7881C10.1044 42.2584 10.4468 40.8885 11.9769 39.8485C12.2086 39.6894 12.4467 39.4384 12.7155 39.1549C12.8733 38.9884 13.0417 38.8109 13.2256 38.6342C13.7229 38.1564 14.2664 37.7156 14.8555 37.3152C20.4858 33.4894 28.1458 34.9485 31.9747 40.5772C32.2589 40.9949 32.5139 41.4238 32.7402 41.8615H43.0721C44.9219 41.8615 46.4215 43.3611 46.4215 45.2109C46.4215 47.0607 44.9219 48.5603 43.0721 48.5603H34.0619C33.9364 50.0066 33.5569 51.4259 32.9372 52.747H41.7094C44.3743 52.747 46.9301 51.6884 48.8145 49.804L59.1253 39.4932C60.4333 38.1851 62.5541 38.1851 63.8621 39.4932C65.1701 40.8012 65.1701 42.9219 63.8621 44.2299L53.5512 54.5407C50.4106 57.6814 46.151 59.4458 41.7094 59.4458H23.8132C22.8627 59.4458 22.0047 59.0499 21.3951 58.414Z" fill="#008A27"/>
<path d="M20.8594 30.1445C20.8594 22.7452 26.8576 16.7469 34.2569 16.7469V16.7469C41.6561 16.7469 47.6544 22.7452 47.6544 30.1445V33.4938H20.8594V30.1445Z" fill="#9AEEB1"/>
<circle cx="34.2574" cy="6.69876" r="6.69876" fill="#9AEEB1"/>
</svg>
