<svg width="41" height="41" viewBox="0 0 41 41" fill="none" xmlns="http://www.w3.org/2000/svg">
<circle cx="20.4092" cy="20.4092" r="20.4092" fill="white"/>
<path d="M28.7158 19.2421L26.7263 17.2526V14.4105C26.7263 13.8421 26.2526 13.2737 25.5895 13.2737H22.7474L20.7579 11.2842C20.3789 10.9053 19.6211 10.9053 19.2421 11.2842L17.2526 13.2737H14.4105C13.8421 13.2737 13.2737 13.7474 13.2737 14.4105V17.2526L11.2842 19.2421C10.9053 19.6211 10.9053 20.3789 11.2842 20.7579L13.2737 22.7474V25.5895C13.2737 26.1579 13.7474 26.7263 14.4105 26.7263H17.2526L19.2421 28.7158C19.6211 29.0947 20.3789 29.0947 20.7579 28.7158L22.7474 26.7263H25.5895C26.1579 26.7263 26.7263 26.2526 26.7263 25.5895V22.7474L28.7158 20.7579C29.0947 20.3789 29.0947 19.6211 28.7158 19.2421ZM24.3579 18.3895L20 22.8421C19.8105 23.0316 19.6211 23.1263 19.4316 23.1263C19.2421 23.1263 18.9579 23.0316 18.8632 22.8421L15.6421 19.6211C15.2632 19.3368 15.2632 18.7684 15.6421 18.4842C15.9263 18.1053 16.4947 18.1053 16.8737 18.4842L19.3368 20.9474L23.1263 17.1579C23.5053 16.7789 23.9789 16.7789 24.3579 17.1579C24.7368 17.5368 24.7368 18.1053 24.3579 18.3895Z" fill="#008A27"/>
</svg>
