<svg width="42" height="41" viewBox="0 0 42 41" fill="none" xmlns="http://www.w3.org/2000/svg">
<circle cx="20.7849" cy="20.4092" r="20.4092" fill="white"/>
<path d="M26.5769 24.8111H29.9998V27.9307H17.5165C18.1206 26.8561 18.691 25.8509 19.2951 24.7764H22.785V15.2789H20.6038V12.1246H28.7581V15.2442H26.5769V24.8111ZM14.4628 18.5372C13.6239 18.4678 12.9192 18.4678 12.2481 18.3292C11.342 18.1905 10.9729 17.6013 11.342 16.8734C12.3152 15.0016 13.3219 13.1645 14.3286 11.2927C14.4293 11.1194 14.7984 11.0154 15.0333 11.0154C15.9729 10.9807 16.8789 11.0154 17.9863 11.0154C17.1474 12.5752 16.342 14.0657 15.5367 15.5562L15.7716 15.7295C16.9796 14.8629 18.3555 15.4522 19.8991 15.2096C18.7917 17.22 17.785 19.0571 16.6776 21.0329C17.5501 21.1022 18.1541 21.1022 18.9259 21.1715C18.4897 22.0034 18.0534 22.766 17.5836 23.5285C17.5165 23.6672 17.2145 23.7712 17.0467 23.7712C15.9394 23.7712 14.832 23.8405 13.7246 23.7365C12.5165 23.6325 12.1138 23.0086 12.5836 22.0034C13.1541 20.8595 13.7917 19.7503 14.4628 18.5372ZM9.99976 28C10.738 26.7522 11.2414 25.8163 11.8118 24.915C11.8789 24.7764 12.1474 24.6377 12.3152 24.6377C13.1541 24.6724 13.993 24.7764 14.832 24.8111C15.6709 24.8457 16.5098 24.8111 17.483 24.8111C16.9125 25.8509 16.3756 26.7522 15.8387 27.688C15.738 27.8267 15.5031 28 15.3353 28H9.99976Z" fill="#008A27"/>
</svg>
