<svg width="41" height="41" viewBox="0 0 41 41" fill="none" xmlns="http://www.w3.org/2000/svg">
<circle cx="20.5344" cy="20.4092" r="20.4092" fill="white"/>
<path d="M27.2178 16.3427C26.8899 19.0591 26.301 21.9001 25.1729 24.4276C24.2063 26.5934 21.9088 22.8217 21.7874 21.8183C21.7595 20.0004 27.7157 12.2069 27.2178 16.3427ZM15.8276 24.4276C14.6995 21.9001 14.1093 19.0591 13.7827 16.3427C13.2848 12.2069 19.2422 20.0004 19.2131 21.8183C19.0916 22.8205 16.7942 26.5934 15.8276 24.4276ZM20.5002 19.7964C15.5981 10.9892 9.89326 9.89707 12.7797 21.5614C14.1603 27.1429 16.7881 29.4193 20.5002 23.5739C24.2124 29.4193 26.8402 27.1429 28.2208 21.5625C31.1072 9.89823 25.4024 10.9915 20.5002 19.7953V19.7964Z" fill="#008A27"/>
</svg>
