<svg width="151" height="36" viewBox="0 0 151 36" fill="none" xmlns="http://www.w3.org/2000/svg">
<g clip-path="url(#clip0_1_3146)">
<path d="M12.4205 16.152C12.5409 16.0966 12.6613 16.0365 12.7816 15.9764C14.1334 15.2788 15.1889 14.3132 15.9481 13.0751C16.7073 11.8416 17.0869 10.4278 17.0869 8.8478C17.0869 7.15227 16.7073 5.66001 15.9481 4.37565C15.1889 3.09591 14.1334 2.08876 12.7816 1.35418C11.4252 0.619599 9.87439 0.25 8.11987 0.25H1.82396C1.30548 0.25 0.874946 0.42094 0.527745 0.758199C0.175915 1.09546 0 1.53436 0 2.07028V27.531H3.64329V17.0206H8.1245C8.35134 17.0206 8.56429 17.0113 8.78187 17.0067L15.6703 27.5541L19.8738 27.5264L12.4159 16.1474L12.4205 16.152ZM3.64329 13.6665V3.60873H8.1245C9.19851 3.60873 10.1429 3.83049 10.9577 4.27401C11.7771 4.71291 12.4159 5.33199 12.8835 6.12663C13.351 6.91665 13.5825 7.82216 13.5825 8.8478C13.5825 9.78104 13.351 10.6126 12.8835 11.3472C12.4159 12.0818 11.7771 12.6501 10.9577 13.0612C10.1383 13.4678 9.19851 13.6711 8.1245 13.6711H3.64329V13.6665Z" fill="#1B1B1B"/>
<path d="M37.1856 24.6848C36.1023 25.7104 34.5283 26.5975 33.3478 26.9902C32.1674 27.3875 31.0424 27.5862 29.9684 27.5862C28.0334 27.5862 26.3112 27.175 24.8067 26.348C23.3022 25.521 22.1217 24.3799 21.2699 22.9246C20.4181 21.4693 19.9922 19.7969 19.9922 17.9119C19.9922 16.0269 20.3949 14.3176 21.2004 12.8623C22.006 11.407 23.1216 10.2658 24.5428 9.43884C25.964 8.61186 27.5982 8.20068 29.4453 8.20068C31.2924 8.20068 32.8294 8.60262 34.1348 9.4065C35.4403 10.2104 36.4402 11.3146 37.13 12.7237C37.8198 14.1328 38.1624 15.759 38.1624 17.5977C38.1624 18.0413 38.0096 18.4062 37.7087 18.6973C37.4032 18.9884 37.0189 19.1362 36.5514 19.1362H22.4457V16.3411H36.4495L35.0144 17.3205C34.9913 16.1563 34.7552 15.1122 34.3154 14.1928C33.871 13.2734 33.2414 12.5435 32.4266 12.0076C31.6072 11.4716 30.6165 11.2037 29.4499 11.2037C28.1213 11.2037 26.9825 11.4947 26.0381 12.0769C25.0937 12.659 24.3762 13.4582 23.8855 14.47C23.3948 15.4818 23.1494 16.6322 23.1494 17.9119C23.1494 19.1916 23.4411 20.3328 24.0243 21.3353C24.6076 22.3379 25.4132 23.1279 26.4409 23.71C27.4686 24.2921 28.6444 24.5832 29.9777 24.5832C30.6999 24.5832 31.4406 24.4492 32.1998 24.1812C32.959 23.9133 34.8663 22.9477 35.3338 22.5966L37.1902 24.6848H37.1856Z" fill="#1B1B1B"/>
<path d="M51.3178 16.7715L58.6137 27.5453L54.7343 27.5638L48.8828 19.0214L51.3178 16.7715Z" fill="#1B1B1B"/>
<path d="M40.6641 27.5868L48.1914 16.4619L50.3672 18.8874L44.6546 27.536L40.6641 27.5868Z" fill="#1B1B1B"/>
<path d="M57.8125 8.20117L51.299 18.282L48.7344 16.4063L52.5582 10.0353C53.035 9.29611 53.0813 9.23605 53.447 8.93575C53.9285 8.53843 54.5396 8.32129 55.3404 8.25661C56.146 8.18731 56.8218 8.20579 57.8125 8.20579V8.20117Z" fill="#1B1B1B"/>
<path d="M44.1518 8.252C44.9526 8.3213 45.5591 8.53382 46.0452 8.93114C46.4109 9.23144 46.4572 9.2915 46.934 10.0307L51.2948 17.1871L48.7302 19.0628L41.6797 8.19656C42.6704 8.19656 43.3509 8.1827 44.1518 8.24738V8.252Z" fill="#1B1B1B"/>
<path d="M81.6922 18.0276C81.6922 19.7647 81.3404 21.3309 80.646 22.7262L77.7712 20.661C78.0999 19.8571 78.2619 18.9793 78.2619 18.0276C78.2619 16.7664 77.9888 15.6483 77.4425 14.655C76.8916 13.6664 76.1556 12.8856 75.2204 12.3127C74.2899 11.7444 73.2252 11.458 72.0354 11.458C70.8457 11.458 69.8134 11.7444 68.869 12.3127C68.3921 12.6038 67.9662 12.9456 67.5913 13.3383L64.9062 11.4072C65.5405 10.6957 66.2812 10.0905 67.133 9.59152C68.5819 8.73683 70.2161 8.31641 72.0354 8.31641C73.8548 8.31641 75.526 8.73683 76.9749 9.59152C78.4239 10.4416 79.572 11.5966 80.4192 13.0658C81.271 14.5303 81.6969 16.1842 81.6969 18.0276H81.6922Z" fill="#1B1B1B"/>
<path d="M79.4408 24.5742C78.839 25.2995 78.1353 25.9186 77.3252 26.4268C75.9688 27.2815 74.4411 27.7019 72.7375 27.7019C71.3626 27.7019 70.0941 27.4201 68.9414 26.8472C67.7841 26.2789 66.798 25.5028 65.9833 24.5233V35.7499H62.4141V18.0276C62.4372 16.2443 62.84 14.6412 63.6269 13.209L66.3907 15.191C66.0203 16.0457 65.8398 16.9881 65.8398 18.0276C65.8398 19.2612 66.1083 20.37 66.6453 21.3633C67.1823 22.3519 67.923 23.1327 68.8674 23.7056C69.8118 24.2739 70.8672 24.5603 72.0338 24.5603C73.2004 24.5603 74.2883 24.2739 75.2188 23.7056C75.7466 23.3822 76.2095 22.9987 76.6076 22.5414L79.4408 24.5788V24.5742Z" fill="#1B1B1B"/>
<path d="M112.033 9.12479C112.375 9.46667 112.704 9.99797 112.741 10.594V27.5586H109.172V8.22852C109.172 8.22852 111.19 8.27471 112.033 9.12479ZM123.56 27.5586V17.2236C123.56 15.8977 123.315 14.812 122.824 13.9758C122.333 13.1349 121.676 12.5159 120.847 12.1047C120.018 11.6981 119.069 11.4948 117.995 11.4948C117.014 11.4948 116.13 11.6935 115.334 12.0908C114.542 12.4881 113.908 13.0148 113.445 13.6801C112.977 14.3454 112.746 15.1077 112.746 15.967H110.542C110.542 14.4978 110.899 13.1904 111.612 12.0354C112.324 10.8804 113.297 9.97025 114.533 9.29111C115.769 8.61659 117.157 8.27933 118.699 8.27933C120.241 8.27933 121.75 8.62121 123.023 9.30959C124.296 9.99797 125.296 11.0051 126.032 12.3311C126.768 13.657 127.134 15.2879 127.134 17.2236V27.5586H123.565H123.56Z" fill="#1B1B1B"/>
<path d="M147.656 24.7129C147.04 25.3828 146.327 25.951 145.517 26.4269C144.068 27.2816 142.439 27.702 140.615 27.702C138.791 27.702 137.156 27.2816 135.698 26.4269C134.235 25.5768 133.083 24.4218 132.231 22.9527C131.379 21.4881 130.953 19.8342 130.953 17.9908C130.953 16.3091 131.282 14.7799 131.939 13.417L134.814 15.4821C134.527 16.2444 134.383 17.0853 134.383 17.9908C134.383 19.2243 134.657 20.3424 135.203 21.3449C135.754 22.3428 136.499 23.1328 137.443 23.7057C138.388 24.274 139.443 24.5604 140.61 24.5604C141.777 24.5604 142.864 24.274 143.795 23.7057C144.225 23.4424 144.614 23.1328 144.957 22.7771L147.651 24.7175L147.656 24.7129Z" fill="#1B1B1B"/>
<path d="M150.24 0.25V17.9908C150.24 19.8295 149.814 21.4789 148.967 22.9434L146.198 20.9476C146.606 20.0513 146.809 19.0626 146.809 17.9908C146.809 16.7341 146.541 15.6161 146.004 14.6366C145.471 13.6572 144.735 12.8857 143.8 12.3128C142.87 11.7445 141.81 11.4581 140.615 11.4581C139.421 11.4581 138.393 11.7445 137.449 12.3128C136.875 12.6639 136.375 13.0797 135.949 13.5787L133.125 11.5459C133.745 10.7743 134.481 10.1229 135.333 9.59162C136.685 8.73692 138.213 8.3165 139.916 8.3165C141.291 8.3165 142.564 8.59832 143.731 9.1712C144.897 9.73946 145.879 10.5156 146.67 11.4951V2.86953C146.67 2.10262 147.032 1.3588 147.67 0.933759C148.221 0.564159 149.041 0.25 150.24 0.25V0.25Z" fill="#1B1B1B"/>
<path d="M101.883 24.6257C100.124 26.4274 97.6659 27.5409 94.9485 27.5409C89.6016 27.5409 85.25 23.2027 85.25 17.862C85.25 16.2727 85.6389 14.7666 86.3286 13.436L89.0553 15.3995C88.7405 16.1572 88.56 16.9888 88.56 17.862C88.56 21.3732 91.4255 24.233 94.9438 24.233C96.5502 24.233 98.0177 23.637 99.1427 22.6529L101.879 24.621L101.883 24.6257Z" fill="#1B1B1B"/>
<path d="M104.649 17.8666C104.649 19.7054 104.136 21.4194 103.242 22.884L100.539 20.9436C101.048 20.0334 101.335 18.9801 101.335 17.8666C101.335 14.3554 98.4692 11.4957 94.9509 11.4957C93.0992 11.4957 91.428 12.2857 90.2614 13.5516L87.5625 11.6112C89.3448 9.51832 91.9974 8.19238 94.9509 8.19238C100.302 8.19238 104.649 12.5352 104.649 17.8713V17.8666Z" fill="#1B1B1B"/>
<path d="M106.926 25.1288L104.991 27.5589L102.625 25.6786C103.352 24.9348 103.986 24.0985 104.458 23.1699L106.926 25.1334V25.1288Z" fill="#1B1B1B"/>
</g>
<defs>
<clipPath id="clip0_1_3146">
<rect width="150.25" height="35.5" fill="white" transform="translate(0 0.25)"/>
</clipPath>
</defs>
</svg>
