<svg width="69" height="69" viewBox="0 0 69 69" fill="none" xmlns="http://www.w3.org/2000/svg">
<path d="M43.4664 11.6483C42.6971 11.1172 41.6795 11.1172 40.9101 11.6483L21.9719 24.7202C21.3633 25.1402 21 25.8325 21 26.5719V29.891C21 31.1337 22.0074 32.141 23.25 32.141H26.25V52.016H23.25C22.0074 52.016 21 53.0234 21 54.266V56.516C21 57.7587 22.0074 58.766 23.25 58.766H61.125C62.3676 58.766 63.375 57.7587 63.375 56.516V54.266C63.375 53.0234 62.3676 52.016 61.125 52.016H58.125V32.141H61.125C62.3676 32.141 63.375 31.1337 63.375 29.891V26.5719C63.375 25.8325 63.0117 25.1403 62.4032 24.7202L43.4664 11.6483Z" fill="#008A27"/>
<path d="M27.8479 31.2264V31.0389H27.6604H24.9259C23.896 31.0389 23.0625 30.2079 23.0625 29.1844V27.297C23.0625 26.6879 23.3631 26.1173 23.8671 25.7709L41.1294 13.907C41.7667 13.469 42.6098 13.469 43.2471 13.907L60.508 25.7709C61.0119 26.1173 61.3125 26.6878 61.3125 27.297V29.1844C61.3125 30.2079 60.479 31.0389 59.4491 31.0389H56.7146H56.5271V31.2264V52.2648V52.4523H56.7146H59.4491C60.479 52.4523 61.3125 53.2834 61.3125 54.3068V56.3489C61.3125 57.3724 60.479 58.2035 59.4491 58.2035H24.9259C23.896 58.2035 23.0625 57.3724 23.0625 56.3489V54.3068C23.0625 53.2834 23.896 52.4523 24.9259 52.4523H27.6604H27.8479V52.2648V31.2264Z" fill="#008A27" stroke="url(#paint0_linear_177_4540)" stroke-width="0.375"/>
<g filter="url(#filter0_d_177_4540)">
<rect x="42" y="34.016" width="5.25" height="16.125" rx="1.5" fill="#008A27"/>
</g>
<g filter="url(#filter1_b_177_4540)">
<path d="M28.8414 11.6483C28.0721 11.1172 27.0545 11.1172 26.2851 11.6483L7.34687 24.7202C6.73832 25.1402 6.375 25.8325 6.375 26.5719V29.891C6.375 31.1337 7.38236 32.141 8.625 32.141H11.625V52.016H8.625C7.38236 52.016 6.375 53.0234 6.375 54.266V56.516C6.375 57.7587 7.38236 58.766 8.625 58.766H46.5C47.7426 58.766 48.75 57.7587 48.75 56.516V54.266C48.75 53.0234 47.7426 52.016 46.5 52.016H43.5V32.141H46.5C47.7426 32.141 48.75 31.1337 48.75 29.891V26.5719C48.75 25.8325 48.3867 25.1403 47.7782 24.7202L28.8414 11.6483Z" fill="url(#paint1_linear_177_4540)" fill-opacity="0.4"/>
<path d="M11.8125 32.141C11.8125 32.0375 11.7286 31.9535 11.625 31.9535H8.625C7.48591 31.9535 6.5625 31.0301 6.5625 29.891V26.5719C6.5625 25.8941 6.89554 25.2596 7.45338 24.8745L26.3916 11.8026C27.0969 11.3158 28.0297 11.3158 28.7349 11.8026L47.6717 24.8745C48.2295 25.2596 48.5625 25.8941 48.5625 26.5719V29.891C48.5625 31.0301 47.6391 31.9535 46.5 31.9535H43.5C43.3964 31.9535 43.3125 32.0375 43.3125 32.141V52.016C43.3125 52.1196 43.3964 52.2035 43.5 52.2035H46.5C47.6391 52.2035 48.5625 53.1269 48.5625 54.266V56.516C48.5625 57.6551 47.6391 58.5785 46.5 58.5785H8.625C7.48591 58.5785 6.5625 57.6551 6.5625 56.516V54.266C6.5625 53.1269 7.48591 52.2035 8.625 52.2035H11.625C11.7286 52.2035 11.8125 52.1196 11.8125 52.016V32.141Z" stroke="url(#paint2_linear_177_4540)" stroke-width="0.375" stroke-linejoin="round"/>
</g>
<g opacity="0.5" filter="url(#filter2_d_177_4540)">
<rect x="19.5" y="34.016" width="5.25" height="16.125" rx="1.5" fill="white"/>
</g>
<g opacity="0.5" filter="url(#filter3_d_177_4540)">
<rect x="31.5" y="34.016" width="5.25" height="16.125" rx="1.5" fill="white"/>
</g>
<defs>
<filter id="filter0_d_177_4540" x="42" y="34.016" width="5.25" height="16.875" filterUnits="userSpaceOnUse" color-interpolation-filters="sRGB">
<feFlood flood-opacity="0" result="BackgroundImageFix"/>
<feColorMatrix in="SourceAlpha" type="matrix" values="0 0 0 0 0 0 0 0 0 0 0 0 0 0 0 0 0 0 127 0" result="hardAlpha"/>
<feOffset dy="0.75"/>
<feComposite in2="hardAlpha" operator="out"/>
<feColorMatrix type="matrix" values="0 0 0 0 0 0 0 0 0 0.54 0 0 0 0 0.154853 0 0 0 1 0"/>
<feBlend mode="normal" in2="BackgroundImageFix" result="effect1_dropShadow_177_4540"/>
<feBlend mode="normal" in="SourceGraphic" in2="effect1_dropShadow_177_4540" result="shape"/>
</filter>
<filter id="filter1_b_177_4540" x="2.625" y="7.5" width="49.875" height="55.0161" filterUnits="userSpaceOnUse" color-interpolation-filters="sRGB">
<feFlood flood-opacity="0" result="BackgroundImageFix"/>
<feGaussianBlur in="BackgroundImageFix" stdDeviation="1.875"/>
<feComposite in2="SourceAlpha" operator="in" result="effect1_backgroundBlur_177_4540"/>
<feBlend mode="normal" in="SourceGraphic" in2="effect1_backgroundBlur_177_4540" result="shape"/>
</filter>
<filter id="filter2_d_177_4540" x="19.5" y="34.016" width="5.25" height="16.875" filterUnits="userSpaceOnUse" color-interpolation-filters="sRGB">
<feFlood flood-opacity="0" result="BackgroundImageFix"/>
<feColorMatrix in="SourceAlpha" type="matrix" values="0 0 0 0 0 0 0 0 0 0 0 0 0 0 0 0 0 0 127 0" result="hardAlpha"/>
<feOffset dy="0.75"/>
<feComposite in2="hardAlpha" operator="out"/>
<feColorMatrix type="matrix" values="0 0 0 0 0 0 0 0 0 0.54 0 0 0 0 0.154853 0 0 0 1 0"/>
<feBlend mode="normal" in2="BackgroundImageFix" result="effect1_dropShadow_177_4540"/>
<feBlend mode="normal" in="SourceGraphic" in2="effect1_dropShadow_177_4540" result="shape"/>
</filter>
<filter id="filter3_d_177_4540" x="31.5" y="34.016" width="5.25" height="16.875" filterUnits="userSpaceOnUse" color-interpolation-filters="sRGB">
<feFlood flood-opacity="0" result="BackgroundImageFix"/>
<feColorMatrix in="SourceAlpha" type="matrix" values="0 0 0 0 0 0 0 0 0 0 0 0 0 0 0 0 0 0 127 0" result="hardAlpha"/>
<feOffset dy="0.75"/>
<feComposite in2="hardAlpha" operator="out"/>
<feColorMatrix type="matrix" values="0 0 0 0 0 0 0 0 0 0.54 0 0 0 0 0.154853 0 0 0 1 0"/>
<feBlend mode="normal" in2="BackgroundImageFix" result="effect1_dropShadow_177_4540"/>
<feBlend mode="normal" in="SourceGraphic" in2="effect1_dropShadow_177_4540" result="shape"/>
</filter>
<linearGradient id="paint0_linear_177_4540" x1="42.1875" y1="13.391" x2="42.1875" y2="58.391" gradientUnits="userSpaceOnUse">
<stop stop-color="white" stop-opacity="0.12"/>
<stop offset="0.369792" stop-color="#008A27"/>
</linearGradient>
<linearGradient id="paint1_linear_177_4540" x1="1.6875" y1="21.0785" x2="56.25" y2="64.2035" gradientUnits="userSpaceOnUse">
<stop stop-color="#008A27"/>
<stop offset="0.289908" stop-color="#DAFFE5"/>
<stop offset="0.689875" stop-color="#63D486"/>
<stop offset="1" stop-color="#008A27"/>
</linearGradient>
<linearGradient id="paint2_linear_177_4540" x1="27.5625" y1="11.25" x2="27.5625" y2="58.766" gradientUnits="userSpaceOnUse">
<stop stop-color="#63D486"/>
<stop offset="1" stop-color="#63D486" stop-opacity="0"/>
</linearGradient>
</defs>
</svg>
