<svg width="70" height="69" viewBox="0 0 70 69" fill="none" xmlns="http://www.w3.org/2000/svg">
<path d="M26.3738 28.9631H42.3554L49.7672 56.294H19.6569L26.3738 28.9631Z" fill="#008A27"/>
<rect x="16.8774" y="52.5881" width="36.1324" height="7.41176" rx="3.70588" fill="#008A27"/>
<g filter="url(#filter0_b_344_6322)">
<rect x="12.7083" y="9.75" width="44.9338" height="32.8897" rx="3" fill="url(#paint0_linear_344_6322)" fill-opacity="0.2"/>
<rect x="12.8958" y="9.9375" width="44.5588" height="32.5147" rx="2.8125" stroke="url(#paint1_linear_344_6322)" stroke-width="0.375"/>
</g>
<g filter="url(#filter1_b_344_6322)">
<path fill-rule="evenodd" clip-rule="evenodd" d="M30.7099 16.8818C31.4699 16.9367 32.1685 17.3191 32.6244 17.9298L40.1921 28.0677C40.4684 28.4377 41.0101 28.4727 41.3316 28.1412L44.5738 24.7976C45.0682 24.2878 45.7481 24 46.4583 24H50.5833C52.0331 24 53.2083 25.1753 53.2083 26.625C53.2083 28.0748 52.0331 29.25 50.5833 29.25H47.8868C47.6839 29.25 47.4896 29.3322 47.3484 29.4779L42.3428 34.6399C41.8074 35.192 41.0569 35.4816 40.2894 35.4321C39.522 35.3826 38.8148 34.999 38.3548 34.3828L30.7504 24.1958C30.477 23.8295 29.9423 23.7909 29.619 24.1141L25.627 28.1062C25.1347 28.5984 24.467 28.875 23.7708 28.875H19.8333C18.3836 28.875 17.2083 27.6998 17.2083 26.25C17.2083 24.8003 18.3836 23.625 19.8333 23.625H22.3728C22.5718 23.625 22.7625 23.546 22.9032 23.4053L28.6647 17.6439C29.2035 17.105 29.9498 16.8269 30.7099 16.8818Z" fill="white" fill-opacity="0.7"/>
<path fill-rule="evenodd" clip-rule="evenodd" d="M30.7099 16.8818C31.4699 16.9367 32.1685 17.3191 32.6244 17.9298L40.1921 28.0677C40.4684 28.4377 41.0101 28.4727 41.3316 28.1412L44.5738 24.7976C45.0682 24.2878 45.7481 24 46.4583 24H50.5833C52.0331 24 53.2083 25.1753 53.2083 26.625C53.2083 28.0748 52.0331 29.25 50.5833 29.25H47.8868C47.6839 29.25 47.4896 29.3322 47.3484 29.4779L42.3428 34.6399C41.8074 35.192 41.0569 35.4816 40.2894 35.4321C39.522 35.3826 38.8148 34.999 38.3548 34.3828L30.7504 24.1958C30.477 23.8295 29.9423 23.7909 29.619 24.1141L25.627 28.1062C25.1347 28.5984 24.467 28.875 23.7708 28.875H19.8333C18.3836 28.875 17.2083 27.6998 17.2083 26.25C17.2083 24.8003 18.3836 23.625 19.8333 23.625H22.3728C22.5718 23.625 22.7625 23.546 22.9032 23.4053L28.6647 17.6439C29.2035 17.105 29.9498 16.8269 30.7099 16.8818Z" stroke="url(#paint2_linear_344_6322)" stroke-width="0.375" stroke-linecap="round" stroke-linejoin="round"/>
</g>
<defs>
<filter id="filter0_b_344_6322" x="5.95831" y="3" width="58.4338" height="46.3896" filterUnits="userSpaceOnUse" color-interpolation-filters="sRGB">
<feFlood flood-opacity="0" result="BackgroundImageFix"/>
<feGaussianBlur in="BackgroundImageFix" stdDeviation="3.375"/>
<feComposite in2="SourceAlpha" operator="in" result="effect1_backgroundBlur_344_6322"/>
<feBlend mode="normal" in="SourceGraphic" in2="effect1_backgroundBlur_344_6322" result="shape"/>
</filter>
<filter id="filter1_b_344_6322" x="10.2708" y="9.9375" width="49.875" height="32.4375" filterUnits="userSpaceOnUse" color-interpolation-filters="sRGB">
<feFlood flood-opacity="0" result="BackgroundImageFix"/>
<feGaussianBlur in="BackgroundImageFix" stdDeviation="3.375"/>
<feComposite in2="SourceAlpha" operator="in" result="effect1_backgroundBlur_344_6322"/>
<feBlend mode="normal" in="SourceGraphic" in2="effect1_backgroundBlur_344_6322" result="shape"/>
</filter>
<linearGradient id="paint0_linear_344_6322" x1="35.1752" y1="9.75" x2="35.1752" y2="42.6397" gradientUnits="userSpaceOnUse">
<stop stop-color="#5FCD7F"/>
<stop offset="0.307292" stop-color="#00FF94"/>
<stop offset="0.802083" stop-color="#7DE7A6"/>
<stop offset="1" stop-color="#5FCD7F"/>
</linearGradient>
<linearGradient id="paint1_linear_344_6322" x1="35.1752" y1="9.75" x2="35.1752" y2="42.6397" gradientUnits="userSpaceOnUse">
<stop stop-color="#59C88F"/>
<stop offset="1" stop-color="#59C88F" stop-opacity="0.26"/>
</linearGradient>
<linearGradient id="paint2_linear_344_6322" x1="30.8958" y1="16.875" x2="35.2083" y2="35.4375" gradientUnits="userSpaceOnUse">
<stop stop-color="#D0FFDE"/>
<stop offset="1" stop-color="#4FE57A"/>
</linearGradient>
</defs>
</svg>
