<svg width="69" height="69" viewBox="0 0 69 69" fill="none" xmlns="http://www.w3.org/2000/svg">
<path d="M13.5 24.75C13.5 23.0931 14.8431 21.75 16.5 21.75H23.625C25.2819 21.75 26.625 23.0931 26.625 24.75V60.75H13.5V24.75Z" fill="#008A27"/>
<mask id="path-2-inside-1_177_4697" fill="white">
<path d="M13.5 27C13.5 25.3431 14.8431 24 16.5 24H23.625C25.2819 24 26.625 25.3431 26.625 27V60.75H13.5V27Z"/>
</mask>
<path d="M13.5 27C13.5 25.3431 14.8431 24 16.5 24H23.625C25.2819 24 26.625 25.3431 26.625 27V60.75H13.5V27Z" fill="#008A27"/>
<path d="M13.5 27C13.5 25.136 15.011 23.625 16.875 23.625H23.25C25.114 23.625 26.625 25.136 26.625 27C26.625 25.5503 25.2819 24.375 23.625 24.375H16.5C14.8431 24.375 13.5 25.5503 13.5 27ZM26.625 60.75H13.5H26.625ZM13.5 60.75V24V60.75ZM26.625 24V60.75V24Z" fill="white" fill-opacity="0.26" mask="url(#path-2-inside-1_177_4697)"/>
<path d="M28.875 11.25C28.875 9.59315 30.2181 8.25 31.875 8.25H39C40.6569 8.25 42 9.59315 42 11.25V60.75H28.875V11.25Z" fill="#008A27"/>
<mask id="path-5-inside-2_177_4697" fill="white">
<path d="M28.875 14.25C28.875 12.5931 30.2181 11.25 31.875 11.25H39C40.6569 11.25 42 12.5931 42 14.25V60.75H28.875V14.25Z"/>
</mask>
<path d="M28.875 14.25C28.875 12.5931 30.2181 11.25 31.875 11.25H39C40.6569 11.25 42 12.5931 42 14.25V60.75H28.875V14.25Z" fill="#008A27"/>
<path d="M28.875 14.25C28.875 12.386 30.386 10.875 32.25 10.875H38.625C40.489 10.875 42 12.386 42 14.25C42 12.8003 40.6569 11.625 39 11.625H31.875C30.2181 11.625 28.875 12.8003 28.875 14.25ZM42 60.75H28.875H42ZM28.875 60.75V11.25V60.75ZM42 11.25V60.75V11.25Z" fill="white" fill-opacity="0.26" mask="url(#path-5-inside-2_177_4697)"/>
<path d="M44.25 36.375C44.25 34.7181 45.5931 33.375 47.25 33.375H54.375C56.0319 33.375 57.375 34.7181 57.375 36.375V60.75H44.25V36.375Z" fill="#008A27"/>
<rect x="10.125" y="58.5" width="49.5" height="3" rx="1.5" fill="#008A27"/>
<g filter="url(#filter0_b_177_4697)">
<path fill-rule="evenodd" clip-rule="evenodd" d="M40.6903 24.2777C40.6903 22.8817 41.8358 21.75 43.249 21.75H57.0662C58.1177 21.75 59.0622 22.3856 59.4472 23.3522C59.8322 24.3189 59.5794 25.4198 58.8097 26.1277L39.0222 44.3271C38.0572 45.2146 36.5674 45.2324 35.5809 44.3682L28.3431 38.0276L18.618 47.6347C17.6188 48.6218 15.9987 48.6218 14.9994 47.6347C14.0002 46.6475 14.0002 45.0471 14.9994 44.06L26.4285 32.7696C27.3856 31.8241 28.9227 31.7786 29.9354 32.6658L37.2367 39.0619L50.5629 26.8054H43.249C41.8358 26.8054 40.6903 25.6737 40.6903 24.2777Z" fill="url(#paint0_linear_177_4697)" fill-opacity="0.53"/>
<path d="M28.4666 37.8866C28.3927 37.8218 28.2812 37.8251 28.2113 37.8942L18.4863 47.5013C17.56 48.4162 16.0574 48.4162 15.1312 47.5013C14.2063 46.5875 14.2063 45.1071 15.1312 44.1934L26.5602 32.903C27.4474 32.0266 28.873 31.9843 29.8119 32.8068L37.1132 39.203C37.1852 39.2661 37.2932 39.2648 37.3637 39.2L50.6898 26.9434C50.7467 26.8911 50.7656 26.8092 50.7376 26.7373C50.7095 26.6653 50.6401 26.6179 50.5629 26.6179H43.249C41.9372 26.6179 40.8778 25.568 40.8778 24.2777C40.8778 22.9874 41.9372 21.9375 43.249 21.9375H57.0662C58.042 21.9375 58.9168 22.5273 59.273 23.4216C59.6291 24.3156 59.3956 25.3341 58.6828 25.9897L38.8953 44.1891C38.0008 45.0118 36.619 45.0283 35.7045 44.2272L28.4666 37.8866Z" stroke="url(#paint1_linear_177_4697)" stroke-width="0.375" stroke-linecap="round" stroke-linejoin="round"/>
</g>
<defs>
<filter id="filter0_b_177_4697" x="7.5" y="15" width="58.875" height="40.125" filterUnits="userSpaceOnUse" color-interpolation-filters="sRGB">
<feFlood flood-opacity="0" result="BackgroundImageFix"/>
<feGaussianBlur in="BackgroundImageFix" stdDeviation="3.375"/>
<feComposite in2="SourceAlpha" operator="in" result="effect1_backgroundBlur_177_4697"/>
<feBlend mode="normal" in="SourceGraphic" in2="effect1_backgroundBlur_177_4697" result="shape"/>
</filter>
<linearGradient id="paint0_linear_177_4697" x1="56.25" y1="23.0625" x2="17.0625" y2="45.375" gradientUnits="userSpaceOnUse">
<stop stop-color="#16A34A"/>
<stop offset="0.244792" stop-color="#E6FFDA"/>
<stop offset="0.692708" stop-color="#00FF94"/>
<stop offset="1" stop-color="#16A34A"/>
</linearGradient>
<linearGradient id="paint1_linear_177_4697" x1="58.125" y1="22.3125" x2="15.1875" y2="47.25" gradientUnits="userSpaceOnUse">
<stop stop-color="#62D385"/>
<stop offset="1" stop-color="#62D385" stop-opacity="0.13"/>
</linearGradient>
</defs>
</svg>
