<svg width="118" height="116" viewBox="0 0 118 116" fill="none" xmlns="http://www.w3.org/2000/svg">
<g clip-path="url(#clip0_10_15190)">
<path d="M92.5764 92.0129C78.9686 106.875 57.3852 113.357 36.9242 106.816C36.3137 106.621 35.7032 106.405 35.0928 106.209C35.3685 99.1993 30.9179 92.5808 23.8875 90.3289C22.253 89.8198 20.5791 89.5456 18.9249 89.5456C16.798 89.5456 14.6712 89.9764 12.7413 90.7793C1.20124 77.3073 -3.28875 58.3525 2.56005 40.2789C3.62347 36.9893 5.00197 33.8954 6.61679 30.9778L18.3932 39.3782C16.542 43.0986 15.2423 47.2303 14.6909 51.734C12.5641 68.7502 22.2333 85.4727 38.1452 92.0912C53.4072 98.4356 70.0477 94.3822 80.7607 83.6517L92.5567 92.0521L92.5764 92.0129Z" fill="#008A27"/>
<path d="M103.841 72.6664C102.245 77.5813 100 82.085 97.2041 86.1579L85.5065 77.8358C87.4561 74.9574 89.0315 71.746 90.1343 68.2801C96.692 48.0134 85.4474 26.2194 65.0652 19.6988C49.0549 14.5684 32.0795 20.4037 22.3709 32.9749L10.6733 24.6724C23.9464 7.20586 47.381 -0.959571 69.4764 6.12888C71.1306 6.65758 72.7651 7.2646 74.3209 7.94995C73.1196 15.6063 77.6884 23.243 85.3489 25.6907C87.0031 26.2194 88.6573 26.4739 90.2918 26.4739C92.3202 26.4739 94.3092 26.0823 96.1603 25.3578C105.81 38.5556 109.236 55.983 103.841 72.6664Z" fill="#008A27"/>
<path d="M90.2724 20.6779C96.015 20.6779 100.67 16.049 100.67 10.339C100.67 4.62891 96.015 0 90.2724 0C84.5298 0 79.8745 4.62891 79.8745 10.339C79.8745 16.049 84.5298 20.6779 90.2724 20.6779Z" fill="#008A27"/>
<path d="M18.8656 116C24.6082 116 29.2635 111.371 29.2635 105.661C29.2635 99.9509 24.6082 95.322 18.8656 95.322C13.1231 95.322 8.46777 99.9509 8.46777 105.661C8.46777 111.371 13.1231 116 18.8656 116Z" fill="#008A27"/>
<path d="M117.882 99.4343C115.479 103.037 112.781 106.425 109.827 109.577C109.591 109.812 109.217 109.852 108.961 109.656L93.5216 97.9265C93.2065 97.6915 93.1868 97.2412 93.4625 96.9866C96.4755 93.9711 99.1538 90.6422 101.418 87.0197C101.615 86.7064 102.049 86.6281 102.344 86.8435L117.724 98.5727C118 98.7881 118.059 99.1601 117.882 99.4539V99.4343Z" fill="#008A27"/>
</g>
<defs>
<clipPath id="clip0_10_15190">
<rect width="118" height="116" fill="white"/>
</clipPath>
</defs>
</svg>
